<svg width="213" height="33" viewBox="0 0 213 33" fill="none" xmlns="http://www.w3.org/2000/svg">
<path d="M22.1467 32.2801C21.6142 32.2801 21.1749 32.116 20.8287 31.7876C20.4826 31.4592 20.3095 31.0551 20.3095 30.5752V18.9437C20.3095 17.0873 19.9301 15.5591 19.1712 14.3594C18.4523 13.1722 17.4471 12.2819 16.1557 11.6883C14.891 11.0821 13.4598 10.779 11.8622 10.779C10.3178 10.779 8.91328 11.0631 7.64851 11.6315C6.42368 12.1998 5.45181 12.9765 4.73289 13.9615C4.00066 14.9466 3.63454 16.0643 3.63454 17.3146H1.03844C1.10501 15.4455 1.6442 13.7784 2.65601 12.3134C3.65451 10.8232 4.9925 9.65499 6.66998 8.80884C8.33415 7.95006 10.1914 7.52067 12.2416 7.52067C14.4649 7.52067 16.4619 7.969 18.2326 8.86567C19.99 9.72446 21.3746 11.0063 22.3864 12.7113C23.4248 14.4162 23.944 16.4937 23.944 18.9437V30.5752C23.944 31.0551 23.771 31.4592 23.4248 31.7876C23.0787 32.116 22.6526 32.2801 22.1467 32.2801ZM1.85721 32.2801C1.28474 32.2801 0.825427 32.1286 0.47928 31.8255C0.15976 31.4971 0 31.0804 0 30.5752V9.5287C0 8.99828 0.15976 8.58152 0.47928 8.27842C0.825427 7.95006 1.28474 7.78588 1.85721 7.78588C2.38974 7.78588 2.80911 7.95006 3.11532 8.27842C3.46147 8.58152 3.63454 8.99828 3.63454 9.5287V30.5752C3.63454 31.0804 3.46147 31.4971 3.11532 31.8255C2.80911 32.1286 2.38974 32.2801 1.85721 32.2801ZM66.4202 32.5075C63.9706 32.5075 61.8005 31.9833 59.91 30.9351C58.0195 29.8616 56.5284 28.384 55.4367 26.5023C54.3583 24.6205 53.8191 22.4736 53.8191 20.0614C53.8191 17.6114 54.3251 15.4581 55.3369 13.6016C56.3753 11.7199 57.7732 10.2422 59.5306 9.16877C61.3279 8.09529 63.3914 7.55855 65.7213 7.55855C68.1044 7.55855 70.1812 8.08266 71.9519 9.13088C73.7492 10.1412 75.1338 11.5557 76.1057 13.3743C77.0775 15.2055 77.5635 17.283 77.5635 19.6068C77.5635 20.0867 77.4104 20.4782 77.1042 20.7813C76.7846 21.0465 76.3719 21.1791 75.866 21.1791H55.7962V18.2997H76.2455L74.2684 19.7015C74.2684 17.9713 73.9223 16.4179 73.23 15.0413C72.5377 13.6648 71.5458 12.5913 70.2544 11.8209C68.9897 11.0379 67.4786 10.6464 65.7213 10.6464C63.924 10.6464 62.3463 11.0505 60.9884 11.8588C59.6437 12.667 58.592 13.7847 57.8331 15.2118C57.1142 16.6137 56.7547 18.2302 56.7547 20.0614C56.7547 21.88 57.1608 23.4902 57.9729 24.8921C58.825 26.2939 59.9766 27.399 61.4277 28.2072C62.8656 29.0155 64.5297 29.4196 66.4202 29.4196C67.7116 29.4196 68.8965 29.2365 69.9749 28.8703C71.0399 28.4914 71.9186 28.0178 72.6109 27.4495C72.9571 27.1716 73.3498 27.0201 73.7891 26.9948C74.2285 26.9696 74.6079 27.0896 74.9274 27.3548C75.3401 27.7084 75.5465 28.0936 75.5465 28.5103C75.5731 28.9397 75.4 29.2997 75.0273 29.5901C73.9888 30.4237 72.6642 31.1246 71.0533 31.6929C69.4423 32.2359 67.898 32.5075 66.4202 32.5075ZM43.3349 32.5075C40.9119 32.5075 38.7418 31.9707 36.8247 30.8972C34.9076 29.7859 33.3832 28.2893 32.2515 26.4076C31.1465 24.5258 30.594 22.4104 30.594 20.0614C30.594 17.6745 31.1599 15.5402 32.2915 13.6584C33.4631 11.7767 35.0407 10.2991 37.0244 9.2256C39.0081 8.11424 41.238 7.55855 43.7143 7.55855C46.2039 7.55855 48.4272 8.11424 50.3843 9.2256C52.368 10.2991 53.9257 11.7767 55.0573 13.6584C56.2155 15.5402 56.808 17.6745 56.8346 20.0614L55.3768 21.1223C55.3768 23.2819 54.8443 25.2267 53.7792 26.9569C52.7408 28.6492 51.3096 30.0069 49.4857 31.0298C47.6884 32.0149 45.6381 32.5075 43.3349 32.5075ZM43.7143 29.3628C45.5383 29.3628 47.1625 28.965 48.587 28.1693C50.0382 27.3611 51.1698 26.256 51.9819 24.8542C52.834 23.4145 53.26 21.8169 53.26 20.0614C53.26 18.2681 52.834 16.6705 51.9819 15.2687C51.1698 13.8668 50.0382 12.7618 48.587 11.9535C47.1625 11.12 45.5383 10.7032 43.7143 10.7032C41.9303 10.7032 40.3128 11.12 38.8616 11.9535C37.4105 12.7618 36.2589 13.8668 35.4068 15.2687C34.5547 16.6705 34.1287 18.2681 34.1287 20.0614C34.1287 21.8169 34.5547 23.4145 35.4068 24.8542C36.2589 26.256 37.4105 27.3611 38.8616 28.1693C40.3128 28.965 41.9303 29.3628 43.7143 29.3628ZM54.9974 32.2801C54.4648 32.2801 54.0255 32.1286 53.6794 31.8255C53.3332 31.4971 53.1601 31.0804 53.1601 30.5752V22.9219L54.0588 19.3794L56.8346 20.0614V30.5752C56.8346 31.0804 56.6615 31.4971 56.3154 31.8255C55.9692 32.1286 55.5299 32.2801 54.9974 32.2801ZM118.582 32.2801C118.049 32.2801 117.61 32.1286 117.264 31.8255C116.918 31.4971 116.745 31.0804 116.745 30.5752V17.6745C116.745 15.5654 116.165 13.8984 115.007 12.6734C113.836 11.4104 112.338 10.779 110.514 10.779C108.57 10.779 106.966 11.4104 105.701 12.6734C104.476 13.8984 103.877 15.5402 103.904 17.5987H100.649C100.675 15.5907 101.135 13.8289 102.027 12.3134C102.905 10.7853 104.117 9.60448 105.661 8.77095C107.192 7.93743 108.936 7.52067 110.893 7.52067C112.744 7.52067 114.382 7.93743 115.806 8.77095C117.257 9.60448 118.375 10.7853 119.161 12.3134C119.973 13.8289 120.379 15.616 120.379 17.6745V30.5752C120.379 31.0804 120.206 31.4971 119.86 31.8255C119.554 32.1286 119.128 32.2801 118.582 32.2801ZM85.5515 32.2801C84.979 32.2801 84.5197 32.1286 84.1735 31.8255C83.854 31.4971 83.6943 31.0804 83.6943 30.5752V9.5287C83.6943 9.02354 83.854 8.60677 84.1735 8.27842C84.5197 7.95006 84.979 7.78588 85.5515 7.78588C86.084 7.78588 86.5034 7.95006 86.8096 8.27842C87.1557 8.60677 87.3288 9.02354 87.3288 9.5287V30.5752C87.3288 31.0804 87.1557 31.4971 86.8096 31.8255C86.5034 32.1286 86.084 32.2801 85.5515 32.2801ZM102.107 32.2801C101.574 32.2801 101.135 32.1286 100.789 31.8255C100.442 31.4971 100.269 31.0804 100.269 30.5752V17.6745C100.269 15.5654 99.6902 13.8984 98.532 12.6734C97.3604 11.4104 95.8626 10.779 94.0387 10.779C92.095 10.779 90.4907 11.3915 89.2259 12.6165C87.9612 13.8163 87.3288 15.3823 87.3288 17.3146H84.7327C84.7993 15.4076 85.2453 13.7216 86.0707 12.2566C86.9094 10.7664 88.0544 9.60448 89.5055 8.77095C90.9567 7.93743 92.5942 7.52067 94.4181 7.52067C96.282 7.52067 97.9196 7.93743 99.3308 8.77095C100.782 9.60448 101.9 10.7853 102.686 12.3134C103.498 13.8289 103.904 15.616 103.904 17.6745V30.5752C103.904 31.0804 103.731 31.4971 103.385 31.8255C103.078 32.1286 102.652 32.2801 102.107 32.2801ZM139.49 32.2801H138.512C136.848 32.2801 135.35 31.9076 134.019 31.1625C132.727 30.4173 131.709 29.4007 130.963 28.1125C130.204 26.7991 129.825 25.3088 129.825 23.6418V1.74282C129.825 1.23766 129.985 0.820896 130.304 0.492538C130.65 0.16418 131.09 0 131.622 0C132.155 0 132.594 0.16418 132.94 0.492538C133.286 0.820896 133.46 1.23766 133.46 1.74282V23.6418C133.46 25.1573 133.932 26.4076 134.877 27.3927C135.823 28.3525 137.034 28.8324 138.512 28.8324H139.79C140.283 28.8324 140.689 28.9966 141.008 29.3249C141.328 29.6533 141.487 30.07 141.487 30.5752C141.487 31.0804 141.294 31.4971 140.908 31.8255C140.536 32.1286 140.063 32.2801 139.49 32.2801ZM138.791 11.6883H126.75C126.284 11.6883 125.891 11.5494 125.571 11.2715C125.265 10.9811 125.112 10.6274 125.112 10.2107C125.112 9.75603 125.265 9.3961 125.571 9.13088C125.891 8.82778 126.284 8.67623 126.75 8.67623H138.791C139.257 8.67623 139.65 8.82778 139.97 9.13088C140.289 9.3961 140.449 9.75603 140.449 10.2107C140.449 10.6274 140.289 10.9811 139.97 11.2715C139.65 11.5494 139.257 11.6883 138.791 11.6883ZM148.237 33C147.478 33 146.833 32.7474 146.3 32.2423C145.768 31.7245 145.501 31.1119 145.501 30.4047C145.501 29.6596 145.768 29.0281 146.3 28.5103C146.859 28.0052 147.505 27.7526 148.237 27.7526C148.996 27.7526 149.642 28.0241 150.174 28.5672C150.707 29.0723 150.973 29.6848 150.973 30.4047C150.973 31.0867 150.707 31.6992 150.174 32.2423C149.668 32.7474 149.023 33 148.237 33ZM179.71 32.2801C179.177 32.2801 178.738 32.116 178.392 31.7876C178.046 31.4592 177.873 31.0551 177.873 30.5752V18.9437C177.873 17.0873 177.5 15.5591 176.754 14.3594C176.022 13.1722 175.01 12.2819 173.719 11.6883C172.468 11.0821 171.036 10.779 169.425 10.779C167.881 10.779 166.483 11.0631 165.232 11.6315C164.007 12.1998 163.028 12.9765 162.296 13.9615C161.577 14.9466 161.218 16.0643 161.218 17.3146H158.622C158.688 15.4455 159.221 13.7784 160.219 12.3134C161.231 10.8232 162.569 9.65499 164.233 8.80884C165.897 7.95006 167.755 7.52067 169.805 7.52067C172.042 7.52067 174.039 7.969 175.796 8.86567C177.567 9.72446 178.951 11.0063 179.95 12.7113C180.988 14.4162 181.507 16.4937 181.507 18.9437V30.5752C181.507 31.0551 181.334 31.4592 180.988 31.7876C180.642 32.116 180.216 32.2801 179.71 32.2801ZM159.421 32.2801C158.848 32.2801 158.389 32.1286 158.043 31.8255C157.736 31.4971 157.583 31.0804 157.583 30.5752V9.5287C157.583 8.99828 157.736 8.58152 158.043 8.27842C158.389 7.95006 158.848 7.78588 159.421 7.78588C159.953 7.78588 160.379 7.95006 160.699 8.27842C161.045 8.58152 161.218 8.99828 161.218 9.5287V30.5752C161.218 31.0804 161.045 31.4971 160.699 31.8255C160.379 32.1286 159.953 32.2801 159.421 32.2801ZM200.778 32.5453C198.542 32.5453 196.545 32.116 194.787 31.2572C193.017 30.3605 191.612 29.0597 190.574 27.3548C189.562 25.6498 189.056 23.5723 189.056 21.1223V9.49081C189.056 9.01091 189.229 8.60677 189.575 8.27842C189.921 7.95006 190.347 7.78588 190.853 7.78588C191.386 7.78588 191.825 7.95006 192.171 8.27842C192.531 8.60677 192.71 9.01091 192.71 9.49081V21.1223C192.71 22.9788 193.07 24.5069 193.789 25.7067C194.548 26.8938 195.553 27.7842 196.804 28.3777C198.096 28.9839 199.547 29.287 201.158 29.287C202.689 29.287 204.073 29.0029 205.312 28.4346C206.563 27.8662 207.555 27.0895 208.287 26.1045C209.006 25.1194 209.365 24.0017 209.365 22.7514H211.962C211.868 24.6205 211.316 26.3065 210.304 27.8094C209.332 29.2618 208.014 30.4237 206.35 31.2951C204.673 32.1286 202.815 32.5453 200.778 32.5453ZM211.163 32.2801C210.63 32.2801 210.191 32.1286 209.845 31.8255C209.525 31.4971 209.365 31.0677 209.365 30.5373V9.49081C209.365 8.98565 209.525 8.58152 209.845 8.27842C210.191 7.95006 210.63 7.78588 211.163 7.78588C211.695 7.78588 212.135 7.95006 212.481 8.27842C212.827 8.58152 213 8.98565 213 9.49081V30.5373C213 31.0677 212.827 31.4971 212.481 31.8255C212.135 32.1286 211.695 32.2801 211.163 32.2801Z" fill="#1C4D48"/>
</svg>
