<svg width="223" height="125" viewBox="0 0 223 125" fill="none" xmlns="http://www.w3.org/2000/svg">
<path d="M170.121 125C158.458 125 148.143 122.38 139.179 117.14C130.214 111.762 123.122 104.356 117.903 94.9239C112.822 85.5053 110.281 74.7352 110.281 62.6138C110.281 50.3406 112.67 39.5637 117.449 30.283C122.379 20.8644 129.03 13.4591 137.402 8.06719C145.913 2.68906 155.697 0 166.754 0C178.115 0 187.975 2.61322 196.333 7.83965C204.857 12.9282 211.433 20.037 216.06 29.166C220.687 38.295 223 48.6927 223 60.3591C223 62.7586 222.256 64.7099 220.769 66.213C219.268 67.5506 217.327 68.2194 214.944 68.2194L119.68 68.2194V53.864L216.741 53.864L207.322 60.8142C207.322 52.1402 205.677 44.3626 202.386 37.4814C199.094 30.6001 194.392 25.2082 188.278 21.3056C182.301 17.4168 175.127 15.4724 166.754 15.4724C158.244 15.4724 150.774 17.4927 144.343 21.5332C137.912 25.5737 132.906 31.1862 129.326 38.3708C125.883 45.4038 124.162 53.4847 124.162 62.6138C124.162 71.7428 126.111 79.8238 130.008 86.8567C134.042 93.8896 139.495 99.4263 146.367 103.467C153.238 107.507 161.157 109.528 170.121 109.528C176.249 109.528 181.847 108.624 186.914 106.818C191.996 104.873 196.182 102.481 199.473 99.6401C201.112 98.3024 202.978 97.5578 205.071 97.4061C207.164 97.2544 208.961 97.8474 210.462 99.185C212.404 100.992 213.374 102.943 213.374 105.039C213.526 107.121 212.7 108.914 210.896 110.417C205.966 114.609 199.693 118.126 192.078 120.966C184.463 123.655 177.144 125 170.121 125ZM60.5215 125C49.0231 125 38.7159 122.311 29.5998 116.933C20.4837 111.389 13.2335 103.908 7.8492 94.4895C2.6164 85.0571 0 74.4318 0 62.6138C0 50.644 2.69214 39.9429 8.07642 30.5105C13.6122 21.0919 21.0827 13.6866 30.488 8.29472C39.907 2.76491 50.5172 0 62.3185 0C74.1199 0 84.6544 2.76491 93.9219 8.29472C103.327 13.6866 110.722 21.0919 116.106 30.5105C121.628 39.9429 124.465 50.644 124.616 62.6138L117.676 67.9919C117.676 78.7757 115.135 88.5046 110.054 97.1786C105.124 105.701 98.3285 112.506 89.6668 117.595C81.1429 122.532 71.4278 125 60.5215 125ZM62.3185 109.3C70.9802 109.3 78.671 107.28 85.3911 103.239C92.2626 99.1988 97.6468 93.6621 101.544 86.6292C105.579 79.4445 107.596 71.4394 107.596 62.6138C107.596 53.6364 105.579 45.6313 101.544 38.5984C97.6468 31.5654 92.2626 26.0287 85.3911 21.9882C78.671 17.7961 70.9802 15.7 62.3185 15.7C53.7946 15.7 46.0969 17.7961 39.2254 21.9882C32.3539 26.0287 26.9007 31.5654 22.866 38.5984C18.8312 45.6313 16.8138 53.6364 16.8138 62.6138C16.8138 71.4394 18.8312 79.4445 22.866 86.6292C26.9007 93.6621 32.3539 99.1988 39.2254 103.239C46.0969 107.28 53.7946 109.3 62.3185 109.3ZM115.879 123.883C113.345 123.883 111.252 123.131 109.6 121.628C107.961 119.987 107.142 117.898 107.142 115.361V76.9692L111.397 59.2421L124.616 62.6138V115.361C124.616 117.898 123.797 119.987 122.158 121.628C120.506 123.131 118.413 123.883 115.879 123.883Z" fill="#DCEAE7"/>
</svg>
