<svg width="100" height="100" viewBox="0 0 100 100" fill="none" xmlns="http://www.w3.org/2000/svg">
<circle cx="50" cy="50" r="50" fill="white"/>
<path d="M69.3716 67.9611C65.6139 67.9611 62.291 67.2082 59.4028 65.7023C56.5146 64.1567 54.2298 62.0286 52.5484 59.3179C50.9113 56.6112 50.0928 53.5161 50.0928 50.0327C50.0928 46.5056 50.8625 43.4086 52.402 40.7415C53.9903 38.0348 56.1331 35.9067 58.8305 34.3572C61.5723 32.8116 64.7244 32.0388 68.2869 32.0388C71.947 32.0388 75.1235 32.7898 77.8165 34.2918C80.5627 35.7541 82.6811 37.797 84.1718 40.4205C85.6624 43.044 86.4078 46.0321 86.4078 49.3847C86.4078 50.0743 86.1682 50.635 85.6891 51.067C85.2055 51.4514 84.5799 51.6436 83.8124 51.6436H53.1207V47.5182H84.3914L81.3568 49.5155C81.3568 47.0228 80.8267 44.7877 79.7663 42.8102C78.706 40.8326 77.1909 39.2831 75.2211 38.1616C73.2957 37.044 70.9843 36.4853 68.2869 36.4853C65.5451 36.4853 63.1383 37.0658 61.0665 38.227C58.9946 39.3881 57.382 41.0011 56.2285 43.0658C55.1194 45.0869 54.5648 47.4092 54.5648 50.0327C54.5648 52.6562 55.1926 54.9785 56.4481 56.9996C57.748 59.0207 59.5048 60.6118 61.7187 61.773C63.9325 62.9341 66.4835 63.5147 69.3716 63.5147C71.3459 63.5147 73.1493 63.2551 74.7819 62.736C76.419 62.1772 77.7677 61.4896 78.828 60.6732C79.356 60.2888 79.9571 60.0748 80.6315 60.0312C81.3058 59.9877 81.8848 60.1581 82.3683 60.5425C82.9939 61.0616 83.3067 61.6224 83.3067 62.2247C83.3555 62.8232 83.0893 63.3383 82.5081 63.7703C80.9198 64.9751 78.899 65.9856 76.4456 66.802C73.9922 67.5748 71.6342 67.9611 69.3716 67.9611ZM34.0615 67.9611C30.357 67.9611 27.0363 67.1884 24.0994 65.6428C21.1624 64.0497 18.8266 61.8998 17.0919 59.1931C15.406 56.4824 14.5631 53.4289 14.5631 50.0327C14.5631 46.5928 15.4304 43.5176 17.1651 40.8069C18.9486 38.1002 21.3554 35.9721 24.3855 34.4225C27.4201 32.8334 30.8384 32.0388 34.6405 32.0388C38.4426 32.0388 41.8365 32.8334 44.8223 34.4225C47.8524 35.9721 50.2348 38.1002 51.9694 40.8069C53.7485 43.5176 54.6624 46.5928 54.7112 50.0327L52.4752 51.5782C52.4752 54.6773 51.6567 57.4731 50.0196 59.9659C48.4313 62.415 46.2419 64.3707 43.4514 65.833C40.7052 67.2518 37.5752 67.9611 34.0615 67.9611ZM34.6405 63.4493C37.431 63.4493 39.9088 62.8687 42.0738 61.7076C44.2877 60.5464 46.0223 58.9553 47.2779 56.9342C48.5777 54.8695 49.2277 52.569 49.2277 50.0327C49.2277 47.4528 48.5777 45.1523 47.2779 43.1312C46.0223 41.1101 44.2877 39.5189 42.0738 38.3578C39.9088 37.153 37.431 36.5507 34.6405 36.5507C31.8943 36.5507 29.4143 37.153 27.2005 38.3578C24.9867 39.5189 23.2298 41.1101 21.9299 43.1312C20.63 45.1523 19.9801 47.4528 19.9801 50.0327C19.9801 52.569 20.63 54.8695 21.9299 56.9342C23.2298 58.9553 24.9867 60.5464 27.2005 61.7076C29.4143 62.8687 31.8943 63.4493 34.6405 63.4493ZM51.8962 67.6401C51.0799 67.6401 50.4056 67.4242 49.8732 66.9922C49.3453 66.5206 49.0813 65.9202 49.0813 65.191V54.1581L50.4522 49.0637L54.7112 50.0327V65.191C54.7112 65.9202 54.4472 66.5206 53.9193 66.9922C53.3869 67.4242 52.7126 67.6401 51.8962 67.6401Z" fill="#333333"/>
</svg>
